# Blender v2.92.0 OBJ File: 'Rochas.blend'
# www.blender.org
mtllib Rocha alta 1_UV.mtl
o Cube.001_Cube.002
v -2.204312 -0.252046 -0.144732
v -2.177227 0.375159 -0.228086
v -2.266248 -0.253634 -0.536014
v -2.235539 0.375830 -0.549910
v -1.636357 -0.213066 -0.334218
v -1.673489 0.432873 -0.348623
v -1.690306 -0.221312 -0.721704
v -1.724154 0.443623 -0.711526
v -1.762532 -0.231383 -0.822173
v -2.068155 -0.231383 -0.822173
v -2.069257 0.422154 -0.755060
v -1.788890 0.461014 -0.756534
v -1.996145 -0.280671 -0.125267
v -1.784761 -0.267636 -0.162351
v -1.793872 0.427081 -0.196235
v -1.988474 0.394747 -0.170183
v -2.212182 0.352623 -0.194317
v -2.278689 0.353298 -0.563318
v -1.694148 0.429052 -0.748199
v -1.636357 0.417568 -0.334218
v -1.774468 0.409051 -0.160020
v -1.996602 0.373014 -0.129936
v -2.088193 0.405068 -0.799990
v -1.768118 0.447761 -0.801609
vt 0.264481 0.101052
vt 0.274856 0.072254
vt 0.400145 0.070774
vt 0.408115 0.099426
vt 0.940158 0.521955
vt 0.926538 0.508281
vt 0.951793 0.485477
vt 0.968583 0.495362
vt 0.225847 0.792826
vt 0.213566 0.809574
vt 0.073023 0.798674
vt 0.065532 0.781280
vt 0.577746 0.745901
vt 0.580316 0.770822
vt 0.509846 0.748267
vt 0.497262 0.722396
vt 0.978656 0.014730
vt 1.000000 0.054187
vt 1.000000 0.200900
vt 0.937285 0.267868
vt 0.837193 0.512449
vt 0.778868 0.433867
vt 0.781376 0.310260
vt 0.839950 0.284110
vt 0.901930 0.291604
vt 0.951982 0.344911
vt 0.778868 0.101845
vt 0.866120 0.000000
vt 0.857725 0.273895
vt 0.781701 0.251536
vt 0.968583 0.335154
vt 0.911710 0.273895
vt 0.659812 0.787525
vt 0.652209 0.808158
vt 0.466802 0.000000
vt 0.485111 0.019745
vt 0.659812 0.063719
vt 0.666816 0.044055
vt 0.771107 0.000000
vt 0.778868 0.015331
vt 0.665317 0.790038
vt 0.778868 0.790341
vt 0.401812 0.767578
vt 0.497262 0.718745
vt 0.659812 0.015376
vt 0.581666 0.000000
vt 0.058534 0.061700
vt 0.006111 0.772141
vt 0.000000 0.000000
vt 0.504020 0.032318
vt 0.208371 0.050833
vt 0.250030 0.038937
vt 0.250030 0.813941
vt 0.250030 0.767578
vn -0.6568 0.4705 0.5892
vn -0.2924 0.9375 0.1885
vn -0.3538 0.9353 0.0010
vn -0.8772 0.4395 -0.1932
vn 0.3204 0.6158 -0.7198
vn 0.0267 0.9931 -0.1140
vn 0.2681 0.9630 -0.0265
vn 0.7990 0.4795 -0.3629
vn 0.2558 0.9626 0.0890
vn 0.8271 0.5037 0.2495
vn -0.0880 0.4931 0.8655
vn -0.1480 0.9479 0.2820
vn 0.3474 -0.5806 -0.7363
vn 0.7648 -0.5626 -0.3139
vn 0.8363 -0.5107 0.1994
vn 0.4050 -0.6623 0.6304
vn -0.2367 0.9628 -0.1299
vn 0.0401 0.9657 0.2565
vn -0.7522 -0.6322 -0.1856
vn -0.3489 -0.5884 -0.7295
vn -0.0181 -0.7132 0.7006
vn -0.5911 -0.5515 0.5885
vn 0.3894 0.5101 0.7669
vn -0.4361 0.5154 -0.7377
usemtl None
s 1
f 17/1/1 2/2/2 4/3/3 18/4/4
f 24/5/5 12/6/6 8/7/7 19/8/8
f 19/9/8 8/10/7 6/11/9 20/12/10
f 22/13/11 16/14/12 2/15/2 17/16/1
f 9/17/13 7/18/14 5/19/15 14/20/16
f 11/21/17 4/22/3 2/23/2 16/24/12
f 8/7/7 12/6/6 15/25/18 6/26/9
f 12/6/6 11/21/17 16/24/12 15/25/18
f 3/27/19 10/28/20 13/29/21 1/30/22
f 10/28/20 9/17/13 14/20/16 13/29/21
f 20/31/10 6/26/9 15/25/18 21/32/23
f 21/33/23 15/34/18 16/14/12 22/13/11
f 18/4/4 4/3/3 11/35/17 23/36/24
f 23/37/24 11/38/17 12/39/6 24/40/5
f 10/41/20 23/37/24 24/40/5 9/42/13
f 3/43/19 18/4/4 23/36/24 10/44/20
f 14/45/16 21/33/23 22/13/11 13/46/21
f 5/47/15 20/12/10 21/48/23 14/49/16
f 13/46/21 22/13/11 17/16/1 1/50/22
f 7/51/14 19/9/8 20/12/10 5/47/15
f 9/52/13 24/53/5 19/9/8 7/51/14
f 1/54/22 17/1/1 18/4/4 3/43/19
