# Blender v2.92.0 OBJ File: 'Rochas.blend'
# www.blender.org
mtllib Rocha media_UV.mtl
o Cube.002_Cube.003
v -3.952815 -0.313547 -0.075405
v -3.956940 0.115744 -0.137132
v -4.080813 -0.316690 -0.543852
v -4.089914 0.117263 -0.570534
v -3.088677 -0.272636 -0.196635
v -3.088677 0.318422 -0.196635
v -3.108003 -0.213317 -0.952347
v -3.112185 0.418408 -0.994020
v -3.425662 -0.272636 -1.026363
v -3.745219 -0.272636 -1.026363
v -3.767031 0.330412 -0.991473
v -3.431742 0.418408 -0.994020
v -3.772502 -0.370220 -0.112223
v -3.378357 -0.272636 0.040380
v -3.378357 0.318422 0.040380
v -3.772502 0.220838 -0.112223
v -4.169932 -0.315119 -0.295687
v -4.176546 0.116504 -0.339891
v -3.036097 -0.242976 -0.870760
v -3.038188 0.368415 -0.891596
v -3.405050 0.368415 -0.598813
v -3.757318 0.275625 -0.407199
v -3.746412 -0.321428 -0.424644
v -3.402010 -0.272636 -0.614985
vt 0.000000 0.513842
vt 0.002905 0.214136
vt 0.081554 0.211738
vt 0.083617 0.512913
vt 0.368205 0.478957
vt 0.348697 0.000000
vt 0.430062 0.000343
vt 0.430062 0.438792
vt 0.792813 0.932931
vt 0.786576 0.508775
vt 1.000000 0.543459
vt 1.000000 0.953506
vt 0.713818 0.474027
vt 0.704902 0.064185
vt 0.784315 0.135708
vt 0.783795 0.433938
vt 0.195817 0.827332
vt 0.295100 0.972826
vt 0.086990 0.977110
vt 0.000000 0.864294
vt 0.644503 0.661604
vt 0.704315 0.474027
vt 0.758781 0.572402
vt 0.741802 0.658969
vt 0.467861 0.960241
vt 0.562388 0.812605
vt 0.758781 0.837222
vt 0.682431 0.953643
vt 0.054542 0.513842
vt 0.115756 0.687477
vt 0.016240 0.687322
vt 0.000200 0.614828
vt 0.438978 0.409842
vt 0.430062 0.000000
vt 0.528578 0.000260
vt 0.537494 0.410102
vt 0.263978 0.060685
vt 0.286841 0.478614
vt 0.300928 0.665199
vt 0.318256 0.800405
vt 0.133877 0.541278
vt 0.437577 0.794478
vt 0.462913 0.645995
vt 0.430062 0.929861
vt 0.634465 0.504650
vt 0.318256 0.940242
vt 0.771255 0.912293
vt 0.758781 0.474027
vt 0.891839 0.132082
vt 0.891839 0.431793
vn -0.7953 -0.5818 0.1698
vn -0.8614 0.4710 0.1900
vn -0.8297 0.4531 -0.3260
vn -0.6229 -0.6905 -0.3674
vn 0.0896 -0.6685 -0.7382
vn -0.0186 0.7859 -0.6181
vn 0.4030 0.6746 -0.6185
vn 0.4399 -0.5535 -0.7071
vn 0.7465 -0.6293 -0.2160
vn 0.7878 0.5849 -0.1928
vn 0.7075 0.5917 0.3864
vn 0.6974 -0.6279 0.3454
vn -0.0749 -0.8260 0.5587
vn -0.3350 0.6574 0.6749
vn -0.4040 0.4795 0.7790
vn -0.3405 -0.5231 0.7812
vn 0.0802 -0.9958 -0.0450
vn 0.1686 -0.5846 0.7936
vn -0.3222 0.9394 0.1166
vn -0.0814 0.9904 0.1111
vn 0.0826 0.6110 0.7873
vn 0.0558 -0.9971 -0.0506
vn -0.4636 0.6128 -0.6399
vn -0.3314 -0.5891 -0.7369
usemtl None
s 1
f 17/1/1 18/2/2 4/3/3 3/4/4
f 9/5/5 12/6/6 8/7/7 7/8/8
f 19/9/9 20/10/10 6/11/11 5/12/12
f 13/13/13 16/14/14 2/15/15 1/16/16
f 24/17/17 19/18/9 5/19/12 14/20/18
f 22/21/19 18/22/2 2/23/15 16/24/14
f 20/25/10 21/26/20 15/27/21 6/28/11
f 21/26/20 22/21/19 16/24/14 15/27/21
f 17/29/1 23/30/22 13/31/13 1/32/16
f 23/30/22 24/17/17 14/20/18 13/31/13
f 5/33/12 6/34/11 15/35/21 14/36/18
f 14/36/18 15/35/21 16/14/14 13/13/13
f 3/4/4 4/3/3 11/37/23 10/38/24
f 10/38/24 11/37/23 12/6/6 9/5/5
f 10/39/24 9/40/5 24/17/17 23/30/22
f 3/41/4 10/39/24 23/30/22 17/29/1
f 12/42/6 11/43/23 22/21/19 21/26/20
f 8/44/7 12/42/6 21/26/20 20/25/10
f 11/43/23 4/45/3 18/22/2 22/21/19
f 9/40/5 7/46/8 19/18/9 24/17/17
f 7/47/8 8/48/7 20/10/10 19/9/9
f 1/16/16 2/15/15 18/49/2 17/50/1
